<svg data-noselect="" viewBox="0 0 400 300" width="400" height="300" preserveAspectRatio="none" version="1.1" xmlns="http://www.w3.org/2000/svg" style="background: rgba(255, 255, 255, 0);"><defs><filter id="filter_shadow_shape_zJnkt4qR7B" width="1000%" height="1000%"><feGaussianBlur in="SourceAlpha" stdDeviation="0"></feGaussianBlur> <feOffset dx="5" dy="5" result="offsetblur"></feOffset><feComponentTransfer><feFuncA type="linear" slope="0.4"></feFuncA></feComponentTransfer><feMerge><feMergeNode></feMergeNode><feMergeNode in="SourceGraphic"></feMergeNode></feMerge></filter></defs> <g id="shape_zJnkt4qR7B" transform="translate(94.44103965518975,43.98489930723875) rotate(0,60,60) scale(1.3395892149672306,1.3395892149672306)" filter="url(#filter_shadow_shape_zJnkt4qR7B)" style="cursor: move; opacity: 0.98;"><g><rect fill="rgba(0,0,0,0)" width="140" height="140" x="-10" y="-10"></rect><svg xmlns="http://www.w3.org/2000/svg" xmlns:xlink="http://www.w3.org/1999/xlink" version="1.1" x="0px" y="0px" viewBox="0 0 100 100" enable-background="new 0 0 100 100" xml:space="preserve" width="120" height="120" preserveAspectRatio="none" data-parent="shape_zJnkt4qR7B"><g><path fill-rule="evenodd" clip-rule="evenodd" fill="#910000" d="M68.371,21.561c0.168,0.173-0.169,0.337-0.169,0.337   s-1.171,0.337-1.508,0.838c-0.337,0.338-0.834,1.504-0.834,1.504c0.67-0.164,1.508-0.337,2.342-0.675   c0.169,0,0.337,0.174,0.506,0.338c0.164,0-2.014,0.838-2.511,1.166c-0.337,0.347-2.009,1.686-2.51,1.686s-1.677,0.164-1.677,0.164   c0.169,0.337,0.337,0.665,0.665,1.166c0,0-1.166,0.675-1.166,0.839c-0.164,0.173-1.003,1.176-1.003,1.176s3.012,0.327,4.015-1.34   c-1.003,1.667-3.345,3.344-8.201,3.344c-5.021,0-9.034-2.004-11.713-3.007c-2.848-1.166-6.528-2.515-9.541-2.515   c-2.843,0-6.191,0.838-8.365,2.852c-3.85-1.503-9.207-0.674-11.718,1.668c-2.342,2.342-4.684,5.194-5.021,7.19   c-0.501,2.187-1.672,7.371-3.345,9.723c-2.346,3.835-5.021,4.847-5.859,6.514c-0.838,1.677-0.838,5.194-0.674,5.194   c0.337,0.164,1.513,0,2.182-0.338c1.34-0.501,5.017-4.346,6.356-6.187c1.339-1.85,5.864-9.886,6.529-12.72   c0.67-2.843,1.339-5.695,3.349-7.199c2.178-1.504,4.848-0.838,4.848-0.665c0,0-2.506,2.005-2.67,7.527   c-0.173,5.521,3.176,4.856,1.503,8.365c-1.676,3.015-6.692,1.002-8.364,2.842c-1.34,1.513,0,6.861,0,7.863   c0,1.012-0.51,5.695-0.838,6.871c-0.173,1.002,0,1.667-0.173,2.342c-0.164,0.51,1.012,0.665,1.012,0.665s-1.012,1.33-1.513,1.011   c-0.501-0.173-0.834-0.173-1.167,0c-0.337,0-1.002,0.319-1.676,0l-2.68,5.687c0.338,0.173,0.839,0.328,1.34,0.173   c0.674-0.173,4.019-1.686,4.355-2.022c0.501-0.164,3.345-1.832,3.846-2.834c0.337-1.003,1.002-4.191,1.002-5.185   c0.169-1.012,0.337-4.192,0.337-5.021c0-0.838-0.168-2.342,0-3.016c0.338-0.501,0.839-1.176,1.509-1.513   c0.833-0.164,1.836-0.164,2.004-0.164c0.338,0,3.185,0.337,3.682,0.337c0.67,0,3.349-0.501,4.019-0.847   c0.838-0.155,1.335,0,1.508,0.346c0.333,0.328-0.337,0.829-0.337,1.003c-0.164,0.163-1.504,1.84-1.841,2.505   c-0.337,0.839-1.504,2.342-1.166,3.017c0.332,0.665,0.332,0.838,1.335,1.349c1.007,0.318,4.852,2.342,7.029,4.347   c2.342,2.159,4.52,4.838,4.858,6.187c0.496,1.513,1.334,1.668,1.836,1.668c0.506,0.173,1.508,0.337,1.508,1.011   c0,0.666-0.173,1.504-0.173,1.504l6.196,2.343c0,0,0-2.179-0.164-3.008c-0.169-1.003-1.176-2.005-2.015-3.017   c-0.833-1.175-9.53-9.704-10.374-10.378c-0.833-0.502-1.508-1.167-1.672-2.506c-0.173-1.349,1.504-2.342,2.516-3.509   c0.665-0.838,2.506-4.692,2.838-5.202c0.333-0.492,1.508-1.832,2.173-1.832c0.839,0,2.68,1.176,5.025,2.005   c1.003,0.337,8.196,2.169,9.208,2.515c1.002,0.164,3.171,0,3.846,0.665c0.665,0.501,0,1.85-0.169,2.679   c-0.169,1.003-2.005,4.684-2.005,4.684s0.333,1.331,0.333,2.352c0,1.166-0.501,5.349-1.003,6.679   c-0.337,1.513-2.679,5.367-3.185,6.033c-0.332,0.501-0.833,0.839-0.833,1.677c0,0.829,1.503,1.012,2.004,1.668   c0.675,0.51,0.169,1.503,0,2.515l6.697,2.843c0-0.501,0.338-1.34,0-1.677c-0.173-0.492-1.002-1.503-1.503-2.178   c-0.337-0.501-1.508-2.342-1.841-2.679c-0.337-0.492-0.337-1.494,0-2.343c0.164-0.828,2.342-6.516,2.506-7.189   c0.337-0.829,3.518-7.536,3.85-8.365c0.337-1.002,3.012-5.858,3.349-6.697c0.333-1.011,2.511-1.841,3.181-1.841   c0.833,0,5.021,1.504,5.686,1.841c0.501,0.164,4.356,1.85,5.021,2.178c0.839,0.328,0.337,1.003-0.164,1.176   c-0.501,0.328-6.698,4.511-7.199,4.684c-0.501,0.164-1.002,0.656-1.34,0.656c-0.501,0-1.171,0.52-1.171,0.684   c0,0.337-0.164,1.002-1.002,1.002c-0.67,0-2.009-1.002-2.843-2.005c-1.176,0.665-2.01,1.176-2.515,2.169   c-0.834,0.829-1.171,1.513-1.673,2.679c0.338,0.337,1.007,0.492,1.504,0.492h5.357c0.502,0,1.171-0.155,1.677-0.319   c0.501-0.337,13.72-9.039,13.72-9.039s2.182-1.677,2.182-3.18c0-1.176-1.011-1.513-1.339-2.014   c-0.506-0.328-3.518-2.342-4.019-2.67c-0.675-0.501-3.017-1.85-3.682-2.187c-0.506-0.328-2.351-0.993-2.351-0.993   c0.51-1.513,0.843-2.68,1.007-3.017c0.173-0.337,0.173-3.354,0.333-3.854c0-0.492,0.843-2.67,1.175-3.007   c0.337-0.337,1.176-3.016,1.34-3.518c0.173-0.328,1.503-4.182,2.178-4.182c0.665-0.164,1.339,0.501,2.005,0.501   c0.674,0.164,3.18-0.164,4.52,0c1.175,0.164,2.679,1.677,3.016,1.841c0.501,0.173,1.668,0.665,2.005,0.665   c0.169,0,1.841-1.167,1.841-1.495c0-0.346-1.176-1.011-1.34-1.011c-0.164-0.164-1.335-0.839-1.335-0.839   c0,0.174,0.497-0.328,1.335-0.328c0.67,0,1.34,0.666,1.504,0.839c0.337,0.164,1.175,0.665,1.339,0.328   C99.33,32.777,100,31.938,100,31.438c0-0.674-0.67-1.503-1.003-1.841c-0.332-0.337-4.183-4.009-4.52-4.182   c-0.501-0.164-2.506-2.015-2.506-2.506c-0.173-0.347-1.175-1.176-1.339-1.349c-0.174-0.164-5.189-3.672-5.859-4.192   c-0.67-0.492-1.34-1.33-1.34-2.168c0-0.829-0.337-3.007-0.337-3.007s-1.166-0.164-1.672,0.328   c-0.497,0.346-1.672,3.025-2.342,3.025c-1.846-0.346-4.188,0.164-4.188,0.492c0.173,0.501,1.845,0.164,1.845,0.164   c0,0.173-0.67,1.002-1.176,1.002c-0.332,0-1.335,0.337-1.503,0.501c-0.333,0-1.003,0.52-1.003,0.52c0.497,0,1.003,0,1.673,0.154   c0,0-1.003,0.675-1.509,0.675c-0.496,0-2.173,0.501-2.674,0.665c-0.337,0.328-1.677,1.34-1.677,1.34h-1.504l0.164,0.337h0.839   V21.561z"></path></g></svg></g> <!----></g><g id="shapge_2K9mDKQ1aL" transform="translate(40.18767644901692,204.73562554381567) rotate(0,119.2995,19.139999999999997) scale(1.3395892149672306,1.3395892149672306)" filter="" style="cursor: move; opacity: 1;"><g><svg xmlns="http://www.w3.org/2000/svg" version="1.1" xmlns:xlink="http://www.w3.org/1999/xlink" overflow="hidden" style="top:0; left: 0" width="238.599" height="38.279999999999994" viewBox="0 0 238.599 38.279999999999994" preserveAspectRatio="none" data-parent="shapge_2K9mDKQ1aL"><rect fill="rgba(0,0,0,0)" width="238.599" height="38.279999999999994"></rect> <rect opacity="0"></rect><g transform="translate(0 0)" data-width="183.599"><path fill="#910000" d="M10.93 0.38L10.93 0.38L10.93 0.38Q8.29 0.38 6.21-0.93L6.21-0.93L6.21-0.93Q4.12-2.23 2.90-4.70L2.90-4.70L2.90-4.70Q1.68-7.16 1.68-10.61L1.68-10.61L1.68-10.61Q1.68-14.07 2.91-16.53L2.91-16.53L2.91-16.53Q4.15-19.00 6.28-20.33L6.28-20.33L6.28-20.33Q8.41-21.66 11.11-21.66L11.11-21.66L11.11-21.66Q13.05-21.66 14.53-20.88L14.53-20.88L14.53-20.88Q16.01-20.10 16.94-19.02L16.94-19.02L15.49-17.28L15.49-17.28Q14.67-18.18 13.59-18.75L13.59-18.75L13.59-18.75Q12.50-19.31 11.14-19.31L11.14-19.31L11.14-19.31Q8.12-19.31 6.28-16.99L6.28-16.99L6.28-16.99Q4.44-14.67 4.44-10.70L4.44-10.70L4.44-10.70Q4.44-6.67 6.22-4.32L6.22-4.32L6.22-4.32Q8.00-1.97 11.05-1.97L11.05-1.97L11.05-1.97Q12.59-1.97 13.78-2.60L13.78-2.60L13.78-2.60Q14.96-3.22 15.98-4.35L15.98-4.35L17.46-2.67L17.46-2.67Q16.21-1.19 14.60-0.41L14.60-0.41L14.60-0.41Q12.99 0.38 10.93 0.38Z" transform="translate(0 25.52)"></path><path fill="#910000" d="M8.79 0.38L8.79 0.38L8.79 0.38Q6.87 0.38 5.21-0.59L5.21-0.59L5.21-0.59Q3.54-1.57 2.51-3.41L2.51-3.41L2.51-3.41Q1.48-5.25 1.48-7.86L1.48-7.86L1.48-7.86Q1.48-10.50 2.51-12.34L2.51-12.34L2.51-12.34Q3.54-14.18 5.21-15.17L5.21-15.17L5.21-15.17Q6.87-16.15 8.79-16.15L8.79-16.15L8.79-16.15Q10.73-16.15 12.38-15.17L12.38-15.17L12.38-15.17Q14.04-14.18 15.07-12.34L15.07-12.34L15.07-12.34Q16.10-10.50 16.10-7.86L16.10-7.86L16.10-7.86Q16.10-5.25 15.07-3.41L15.07-3.41L15.07-3.41Q14.04-1.57 12.38-0.59L12.38-0.59L12.38-0.59Q10.73 0.38 8.79 0.38ZM8.79-1.83L8.79-1.83L8.79-1.83Q10.85-1.83 12.11-3.48L12.11-3.48L12.11-3.48Q13.37-5.13 13.37-7.86L13.37-7.86L13.37-7.86Q13.37-10.59 12.11-12.27L12.11-12.27L12.11-12.27Q10.85-13.95 8.79-13.95L8.79-13.95L8.79-13.95Q6.76-13.95 5.50-12.27L5.50-12.27L5.50-12.27Q4.23-10.59 4.23-7.86L4.23-7.86L4.23-7.86Q4.23-5.13 5.50-3.48L5.50-3.48L5.50-3.48Q6.76-1.83 8.79-1.83Z" transform="translate(18.502000000000002 25.52)"></path><path fill="#910000" d="M8.03 0.38L8.03 0.38L8.03 0.38Q5.08 0.38 3.31-1.77L3.31-1.77L3.31-1.77Q1.54-3.92 1.54-7.86L1.54-7.86L1.54-7.86Q1.54-10.41 2.49-12.27L2.49-12.27L2.49-12.27Q3.45-14.12 5.00-15.14L5.00-15.14L5.00-15.14Q6.55-16.15 8.35-16.15L8.35-16.15L8.35-16.15Q9.74-16.15 10.76-15.66L10.76-15.66L10.76-15.66Q11.77-15.17 12.79-14.30L12.79-14.30L12.64-17.02L12.64-23.08L15.28-23.08L15.28 0L13.14 0L12.88-1.86L12.82-1.86L12.82-1.86Q11.89-0.93 10.67-0.28L10.67-0.28L10.67-0.28Q9.45 0.38 8.03 0.38ZM8.61-1.83L8.61-1.83L8.61-1.83Q10.79-1.83 12.64-4.00L12.64-4.00L12.64-12.27L12.64-12.27Q10.79-13.92 8.82-13.92L8.82-13.92L8.82-13.92Q6.90-13.92 5.58-12.25L5.58-12.25L5.58-12.25Q4.26-10.59 4.26-7.89L4.26-7.89L4.26-7.89Q4.26-5.05 5.39-3.44L5.39-3.44L5.39-3.44Q6.53-1.83 8.61-1.83Z" transform="translate(36.07600000000001 25.52)"></path><path fill="#910000" d="M9.02 0.38L9.02 0.38L9.02 0.38Q6.93 0.38 5.22-0.59L5.22-0.59L5.22-0.59Q3.51-1.57 2.49-3.42L2.49-3.42L2.49-3.42Q1.48-5.28 1.48-7.86L1.48-7.86L1.48-7.86Q1.48-10.41 2.49-12.27L2.49-12.27L2.49-12.27Q3.51-14.12 5.13-15.14L5.13-15.14L5.13-15.14Q6.76-16.15 8.58-16.15L8.58-16.15L8.58-16.15Q11.60-16.15 13.22-14.14L13.22-14.14L13.22-14.14Q14.85-12.12 14.85-8.76L14.85-8.76L14.85-8.76Q14.85-7.89 14.73-7.25L14.73-7.25L4.12-7.25L4.12-7.25Q4.29-4.70 5.70-3.22L5.70-3.22L5.70-3.22Q7.11-1.74 9.34-1.74L9.34-1.74L9.34-1.74Q10.50-1.74 11.46-2.07L11.46-2.07L11.46-2.07Q12.41-2.41 13.28-2.99L13.28-2.99L14.24-1.25L14.24-1.25Q13.20-0.55 11.92-0.09L11.92-0.09L11.92-0.09Q10.64 0.38 9.02 0.38ZM4.09-9.13L4.09-9.13L12.53-9.13L12.53-9.13Q12.53-13.92 8.61-14.04L8.61-14.04L8.61-14.04Q6.93-14.04 5.66-12.76L5.66-12.76L5.66-12.76Q4.38-11.48 4.09-9.13Z" transform="translate(54.05600000000001 25.52)"></path><path fill="#910000" d="M9.16-19.08L5.60-19.08L5.60-11.19L9.16-11.19L9.16-11.19Q11.66-11.19 12.99-12.21L12.99-12.21L12.99-12.21Q14.33-13.22 14.33-15.28L14.33-15.28L14.33-15.28Q14.33-17.40 12.99-18.24L12.99-18.24L12.99-18.24Q11.66-19.08 9.16-19.08L9.16-19.08ZM12.18-9.31L17.63 0L14.59 0L9.43-9.02L5.60-9.02L5.60 0L2.90 0L2.90-21.26L9.57-21.26L9.57-21.26Q11.75-21.26 13.41-20.69L13.41-20.69L13.41-20.69Q15.08-20.13 16.04-18.82L16.04-18.82L16.04-18.82Q16.99-17.52 16.99-15.28L16.99-15.28L16.99-15.28Q16.99-12.82 15.69-11.32L15.69-11.32L15.69-11.32Q14.38-9.83 12.18-9.31L12.18-9.31Z" transform="translate(70.12200000000001 25.52)"></path><path fill="#910000" d="M7.25 0.38L7.25 0.38L7.25 0.38Q4.79 0.38 3.63-1.20L3.63-1.20L3.63-1.20Q2.47-2.78 2.47-5.77L2.47-5.77L2.47-15.75L5.10-15.75L5.10-6.09L5.10-6.09Q5.10-3.89 5.80-2.90L5.80-2.90L5.80-2.90Q6.50-1.91 8.06-1.91L8.06-1.91L8.06-1.91Q9.28-1.91 10.25-2.55L10.25-2.55L10.25-2.55Q11.22-3.19 12.33-4.58L12.33-4.58L12.33-15.75L14.96-15.75L14.96 0L12.76 0L12.56-2.47L12.47-2.47L12.47-2.47Q11.37-1.16 10.12-0.39L10.12-0.39L10.12-0.39Q8.87 0.38 7.25 0.38Z" transform="translate(88.53700000000002 25.52)"></path><path fill="#910000" d="M5.31 0L2.67 0L2.67-15.75L4.84-15.75L5.08-13.49L5.16-13.49L5.16-13.49Q6.29-14.62 7.57-15.38L7.57-15.38L7.57-15.38Q8.85-16.15 10.44-16.15L10.44-16.15L10.44-16.15Q12.93-16.15 14.09-14.57L14.09-14.57L14.09-14.57Q15.25-12.99 15.25-9.98L15.25-9.98L15.25 0L12.62 0L12.62-9.63L12.62-9.63Q12.62-11.86 11.90-12.85L11.90-12.85L11.90-12.85Q11.19-13.83 9.63-13.83L9.63-13.83L9.63-13.83Q8.41-13.83 7.44-13.22L7.44-13.22L7.44-13.22Q6.47-12.62 5.31-11.43L5.31-11.43L5.31 0Z" transform="translate(106.14000000000001 25.52)"></path><path fill="#910000" d="M5.31 0L2.67 0L2.67-15.75L4.84-15.75L5.08-13.49L5.16-13.49L5.16-13.49Q6.29-14.62 7.57-15.38L7.57-15.38L7.57-15.38Q8.85-16.15 10.44-16.15L10.44-16.15L10.44-16.15Q12.93-16.15 14.09-14.57L14.09-14.57L14.09-14.57Q15.25-12.99 15.25-9.98L15.25-9.98L15.25 0L12.62 0L12.62-9.63L12.62-9.63Q12.62-11.86 11.90-12.85L11.90-12.85L11.90-12.85Q11.19-13.83 9.63-13.83L9.63-13.83L9.63-13.83Q8.41-13.83 7.44-13.22L7.44-13.22L7.44-13.22Q6.47-12.62 5.31-11.43L5.31-11.43L5.31 0Z" transform="translate(123.85900000000001 25.52)"></path><path fill="#910000" d="M5.31 0L2.67 0L2.67-15.75L5.31-15.75L5.31 0ZM4.00-19.00L4.00-19.00L4.00-19.00Q3.22-19.00 2.70-19.49L2.70-19.49L2.70-19.49Q2.18-19.98 2.18-20.71L2.18-20.71L2.18-20.71Q2.18-22.33 4.00-22.42L4.00-22.42L4.00-22.42Q4.79-22.42 5.31-21.97L5.31-21.97L5.31-21.97Q5.83-21.52 5.83-20.71L5.83-20.71L5.83-20.71Q5.83-19.98 5.31-19.49L5.31-19.49L5.31-19.49Q4.79-19.00 4.00-19.00Z" transform="translate(141.578 25.52)"></path><path fill="#910000" d="M5.31 0L2.67 0L2.67-15.75L4.84-15.75L5.08-13.49L5.16-13.49L5.16-13.49Q6.29-14.62 7.57-15.38L7.57-15.38L7.57-15.38Q8.85-16.15 10.44-16.15L10.44-16.15L10.44-16.15Q12.93-16.15 14.09-14.57L14.09-14.57L14.09-14.57Q15.25-12.99 15.25-9.98L15.25-9.98L15.25 0L12.62 0L12.62-9.63L12.62-9.63Q12.62-11.86 11.90-12.85L11.90-12.85L11.90-12.85Q11.19-13.83 9.63-13.83L9.63-13.83L9.63-13.83Q8.41-13.83 7.44-13.22L7.44-13.22L7.44-13.22Q6.47-12.62 5.31-11.43L5.31-11.43L5.31 0Z" transform="translate(149.553 25.52)"></path><path fill="#910000" d="M7.98 7.25L7.98 7.25L7.98 7.25Q5.08 7.25 3.26 6.15L3.26 6.15L3.26 6.15Q1.45 5.05 1.45 3.02L1.45 3.02L1.45 3.02Q1.45 1.02 3.80-0.55L3.80-0.55L3.80-0.67L3.80-0.67Q3.16-1.04 2.76-1.68L2.76-1.68L2.76-1.68Q2.35-2.32 2.35-3.25L2.35-3.25L2.35-3.25Q2.35-4.23 2.91-4.99L2.91-4.99L2.91-4.99Q3.48-5.74 4.12-6.18L4.12-6.18L4.12-6.29L4.12-6.29Q3.31-6.93 2.68-8.02L2.68-8.02L2.68-8.02Q2.06-9.11 2.06-10.53L2.06-10.53L2.06-10.53Q2.06-13.11 3.83-14.63L3.83-14.63L3.83-14.63Q5.60-16.15 7.98-16.15L7.98-16.15L7.98-16.15Q9.28-16.15 10.18-15.75L10.18-15.75L15.66-15.75L15.66-13.72L12.44-13.72L12.44-13.72Q13.72-12.53 13.72-10.47L13.72-10.47L13.72-10.47Q13.72-7.95 12.05-6.47L12.05-6.47L12.05-6.47Q10.38-4.99 7.98-4.99L7.98-4.99L7.98-4.99Q6.82-4.99 5.63-5.54L5.63-5.54L5.63-5.54Q5.19-5.19 4.90-4.76L4.90-4.76L4.90-4.76Q4.61-4.32 4.61-3.65L4.61-3.65L4.61-3.65Q4.61-2.90 5.19-2.42L5.19-2.42L5.19-2.42Q5.77-1.94 7.37-1.94L7.37-1.94L10.44-1.94L10.44-1.94Q15.92-1.94 15.92 1.80L15.92 1.80L15.92 1.80Q15.92 4.00 13.78 5.63L13.78 5.63L13.78 5.63Q11.63 7.25 7.98 7.25ZM7.98-6.79L7.98-6.79L7.98-6.79Q9.34-6.79 10.32-7.80L10.32-7.80L10.32-7.80Q11.31-8.82 11.31-10.53L11.31-10.53L11.31-10.53Q11.31-12.24 10.34-13.22L10.34-13.22L10.34-13.22Q9.37-14.21 7.98-14.21L7.98-14.21L7.98-14.21Q6.58-14.21 5.60-13.24L5.60-13.24L5.60-13.24Q4.61-12.27 4.61-10.53L4.61-10.53L4.61-10.53Q4.61-8.82 5.61-7.80L5.61-7.80L5.61-7.80Q6.61-6.79 7.98-6.79ZM8.35 5.45L8.35 5.45L8.35 5.45Q10.61 5.45 11.99 4.45L11.99 4.45L11.99 4.45Q13.37 3.45 13.37 2.20L13.37 2.20L13.37 2.20Q13.37 1.10 12.54 0.68L12.54 0.68L12.54 0.68Q11.72 0.26 10.15 0.26L10.15 0.26L7.42 0.26L7.42 0.26Q6.55 0.26 5.39 0L5.39 0L5.39 0Q3.77 1.28 3.77 2.67L3.77 2.67L3.77 2.67Q3.77 3.92 4.99 4.68L4.99 4.68L4.99 4.68Q6.21 5.45 8.35 5.45Z" transform="translate(167.272 25.52)"></path></g></svg></g> <!----></g>  <!----></svg>